# xmcd
#
# Track frame offsets:
#	150
#	15322
#	31317
#	46973
#	63083
#	78812
#	93622
#	108355
#	123473
#	138338
#
# Disc length: 2054 seconds
#
# Revision: 1
# Processed by: cddbd v1.5.2PL0 Copyright (c) Steve Scherf et al.
# Submitted via: EasyCDDAExtractor 16.0.8.2
#
DISCID=7308040a
DTITLE=Συλλογικός δίσκος - Άγνωστα αριστουργήματα από 78 στροφές-Γ. Μητσάκης
DYEAR=2007
DGENRE=Λαϊκή
TTITLE0=Μπέλλου Σωτηρία-Περπινιάδης Στελλάκης - Θα γυρίσεις κάποιο δείλι
TTITLE1=Μητσάκης Γιώργος-Στάμου Ρένα - Κάνε με να σε ξεχάσω
TTITLE2=Μητσάκης Γιώργος-Γρύλλη Μαρία-Τατασσόπουλος Γ. - Το παιδί του δρόμου
TTITLE3=Μητσάκης Γιώργος-Τατασσόπουλος Γιάννης - Είσαι χτικιό
TTITLE4=Μητσάκης Γιώργος-Στάμου Ρένα - Η αιτία θά 'σαι 'σύ
TTITLE5=Γεωργακοπούλου Ιωάννα-Μητσάκης Γιώργος - Το κορίτσι πού 'χει φίλο ναυτ
TTITLE5=ικό
TTITLE6=Μπέλλου Σωτηρία-Περπινιάδης Στελλάκης-Μητσάκης Γ. - Δεν είσαι πια γυνα
TTITLE6=ίκα μου
TTITLE7=Μητσάκης Γιώργος-Γεωργακοπούλου Ιωάννα - Πάλι δικό σου κάνε με
TTITLE8=Τσαουσάκης Πρόδρομος-Νίνου Μαρίκα-Μητσάκης Γ. - Ταξιδιώτης
TTITLE9=Καζαντζίδης Στέλιος-Στάμου Ρένα - Έπεσα έξω
EXTD=
EXTT0=
EXTT1=
EXTT2=
EXTT3=
EXTT4=
EXTT5=
EXTT6=
EXTT7=
EXTT8=
EXTT9=
PLAYORDER=
